<svg width="44" height="44" viewBox="0 0 44 44" fill="none" xmlns="http://www.w3.org/2000/svg">
<path d="M20.2305 12.5847L13.878 17.6722C13.163 18.2405 12.7047 19.4414 12.8605 20.3397L14.0797 27.6364C14.2997 28.938 15.5463 29.9922 16.8663 29.9922H27.133C28.4438 29.9922 29.6997 28.9289 29.9197 27.6364L31.1388 20.3397C31.2855 19.4414 30.8272 18.2405 30.1213 17.6722L23.7688 12.5939C22.788 11.8055 21.2022 11.8055 20.2305 12.5847Z" fill="white"/>
<path d="M20.2305 12.5847L13.878 17.6722C13.163 18.2405 12.7047 19.4414 12.8605 20.3397L14.0797 27.6364C14.2997 28.938 15.5463 29.9922 16.8663 29.9922H27.133C28.4438 29.9922 29.6997 28.9289 29.9197 27.6364L31.1388 20.3397C31.2855 19.4414 30.8272 18.2405 30.1213 17.6722L23.7688 12.5939C22.788 11.8055 21.2022 11.8055 20.2305 12.5847Z" fill="black" fill-opacity="0.2"/>
<path d="M22 26.5V23.75" stroke="#1A1A1A" stroke-width="1.375" stroke-linecap="round" stroke-linejoin="round"/>
</svg>
