<svg width="22" height="22" viewBox="0 0 22 22" fill="none" xmlns="http://www.w3.org/2000/svg">
<path d="M9.23051 2.5847L2.87801 7.6722C2.16301 8.24053 1.70467 9.44137 1.86051 10.3397L3.07967 17.6364C3.29967 18.938 4.54634 19.9922 5.86634 19.9922H16.133C17.4438 19.9922 18.6997 18.9289 18.9197 17.6364L20.1388 10.3397C20.2855 9.44137 19.8272 8.24053 19.1213 7.6722L12.7688 2.59387C11.788 1.80553 10.2022 1.80553 9.23051 2.5847Z" fill="#131318"/>
<path d="M9.23051 2.5847L2.87801 7.6722C2.16301 8.24053 1.70467 9.44137 1.86051 10.3397L3.07967 17.6364C3.29967 18.938 4.54634 19.9922 5.86634 19.9922H16.133C17.4438 19.9922 18.6997 18.9289 18.9197 17.6364L20.1388 10.3397C20.2855 9.44137 19.8272 8.24053 19.1213 7.6722L12.7688 2.59387C11.788 1.80553 10.2022 1.80553 9.23051 2.5847Z" fill="black" fill-opacity="0.2"/>
<path d="M11 16.5V13.75" stroke="white" stroke-width="1.375" stroke-linecap="round" stroke-linejoin="round"/>
</svg>
