<svg width="44" height="44" viewBox="0 0 44 44" fill="none" xmlns="http://www.w3.org/2000/svg">
<path d="M20.2308 12.5847L13.8783 17.6722C13.1633 18.2405 12.7049 19.4414 12.8608 20.3397L14.0799 27.6364C14.2999 28.938 15.5466 29.9922 16.8666 29.9922H27.1333C28.4441 29.9922 29.6999 28.9289 29.9199 27.6364L31.1391 20.3397C31.2858 19.4414 30.8274 18.2405 30.1216 17.6722L23.7691 12.5939C22.7883 11.8055 21.2024 11.8055 20.2308 12.5847Z" fill="#FAFAFA"/>
<path d="M20.2308 12.5847L13.8783 17.6722C13.1633 18.2405 12.7049 19.4414 12.8608 20.3397L14.0799 27.6364C14.2999 28.938 15.5466 29.9922 16.8666 29.9922H27.1333C28.4441 29.9922 29.6999 28.9289 29.9199 27.6364L31.1391 20.3397C31.2858 19.4414 30.8274 18.2405 30.1216 17.6722L23.7691 12.5939C22.7883 11.8055 21.2024 11.8055 20.2308 12.5847Z" fill="black" fill-opacity="0.2"/>
<path d="M22 26.5V23.75" stroke="#1A1A1A" stroke-width="1.375" stroke-linecap="round" stroke-linejoin="round"/>
</svg>
