<svg width="10" height="10" viewBox="0 0 10 10" fill="none" xmlns="http://www.w3.org/2000/svg">
<g clip-path="url(#clip0_65_412)">
<path fill-rule="evenodd" clip-rule="evenodd" d="M4.57293 5.21704C4.57544 6.21649 4.57845 7.9146 4.58095 9.23438C6.38797 9.47874 8.19499 9.73065 9.999 10C9.999 8.42437 10.001 6.85562 9.999 5.35645C8.19048 5.35645 6.38246 5.21704 4.57293 5.21704ZM0 5.21753V8.61084C1.36291 8.79474 2.72581 8.9705 4.08622 9.17139C4.08872 7.85861 4.08521 6.54545 4.08521 5.23267C2.72331 5.23517 1.3619 5.21303 0 5.21753ZM0 1.42163V4.80542C1.36291 4.80892 2.72581 4.78829 4.08872 4.78979C4.08772 3.48001 4.08772 2.17184 4.08622 0.862061C2.72231 1.03247 1.3584 1.21275 0 1.42163ZM10 4.73584C8.19398 4.74284 6.38797 4.77038 4.58095 4.77588C4.57995 3.44461 4.57995 2.11493 4.58095 0.784668C6.38446 0.509318 8.19198 0.25036 9.999 0C10 1.57913 9.999 3.15671 10 4.73584Z" fill="white"/>
</g>
<defs>
<clipPath id="clip0_65_412">
<rect width="10" height="10" fill="white"/>
</clipPath>
</defs>
</svg>
