<svg width="10" height="10" viewBox="0 0 10 10" fill="none" xmlns="http://www.w3.org/2000/svg">
<g clip-path="url(#clip0_65_407)">
<path d="M9.99997 4.99994V4.99911C9.99997 3.49161 9.3308 2.14036 8.2733 1.22661L8.26705 1.22119C7.47122 1.64744 6.78872 2.16327 6.19747 2.76827L6.1958 2.76994C6.21413 2.78911 6.23205 2.80536 6.25038 2.82494C7.79997 4.49661 9.21122 6.87911 8.97788 8.02119C9.61538 7.19411 9.99955 6.14286 9.99955 5.00202C9.99955 5.00119 9.99955 5.00036 9.99955 4.99952L9.99997 4.99994Z" fill="white"/>
<path d="M5.24616 1.64799C5.94616 1.18799 6.78741 0.884238 7.69283 0.805488L7.71283 0.804238C6.94741 0.300072 6.00866 0.000488281 4.99991 0.000488281C4.09533 0.000488281 3.247 0.241738 2.51575 0.663405L2.53991 0.650488C2.81408 0.886738 3.722 0.975905 4.82491 1.65049C4.8845 1.68757 4.95658 1.70965 5.03408 1.70965C5.11283 1.70965 5.18616 1.68674 5.24783 1.64757L5.24616 1.6484V1.64799Z" fill="white"/>
<path d="M3.81917 2.82411C3.83833 2.8037 3.85792 2.78661 3.87667 2.76661C3.38917 2.29411 2.8575 1.86078 2.29083 1.47495L2.24958 1.44828C2.12375 1.3562 1.96583 1.30078 1.795 1.30078C1.73417 1.30078 1.675 1.30786 1.61792 1.3212L1.62333 1.32036C0.624167 2.2362 0 3.54703 0 5.0037C0 6.21578 0.432083 7.32703 1.15083 8.19161L1.14417 8.18328C0.714583 7.12203 2.17625 4.56995 3.81875 2.82411H3.81917Z" fill="white"/>
<path d="M5.035 3.83252C3.38417 5.2921 1.08625 7.47002 1.43834 8.50669C2.34417 9.42877 3.60417 10 4.9975 10C6.45292 10 7.76292 9.37669 8.675 8.3821L8.67834 8.37835C8.88084 7.28752 6.69709 5.32127 5.035 3.83252Z" fill="white"/>
</g>
<defs>
<clipPath id="clip0_65_407">
<rect width="10" height="10" fill="white"/>
</clipPath>
</defs>
</svg>
