<svg width="10" height="10" viewBox="0 0 10 10" fill="none" xmlns="http://www.w3.org/2000/svg">
<path d="M4.00122 7.77446L5.39243 8.2789V3.12594C5.39257 3.09268 5.40071 3.05994 5.41616 3.03049C5.43161 3.00103 5.45391 2.97572 5.48119 2.9567C5.50847 2.93767 5.53993 2.92548 5.5729 2.92116C5.60588 2.91683 5.63942 2.9205 5.67068 2.93186C5.75211 2.96125 5.8225 3.01502 5.87229 3.08585C5.92208 3.15667 5.94884 3.24112 5.94893 3.32769V5.45404C6.10834 5.50924 6.27872 5.52515 6.4456 5.50043C6.61248 5.4757 6.77092 5.41107 6.90748 5.31202C7.04404 5.21297 7.15468 5.08243 7.23001 4.93148C7.30534 4.78053 7.34312 4.61364 7.34016 4.44496C7.33964 4.00079 7.20232 3.56757 6.94686 3.20421C6.69141 2.84085 6.33023 2.56501 5.91245 2.41419L4.00122 1.72119V7.77446Z" fill="white"/>
<path d="M3.44373 5.53857L1.30207 6.30524C1.23382 6.32982 1.17111 6.36763 1.11751 6.4165C1.06391 6.46537 1.02049 6.52434 0.989736 6.59002C0.95898 6.65571 0.941495 6.72683 0.938284 6.79929C0.935073 6.87175 0.946199 6.94413 0.971024 7.01228C1.05209 7.17631 1.18482 7.30914 1.34877 7.39035C2.04652 7.71439 2.84324 7.75312 3.56913 7.49828C3.58971 7.49203 3.98077 7.36351 4.00125 7.35676V6.54966L2.79598 6.97422C2.60859 7.04151 2.40402 7.04384 2.21515 6.98082C2.15921 6.96055 2.07029 6.84991 2.2395 6.77249L3.44367 6.34572L3.44373 5.53857Z" fill="white"/>
<path d="M5.39258 6.06509C5.44545 6.04703 5.85668 5.9048 5.91004 5.88886C6.82177 5.61678 7.79794 5.65422 8.68616 5.99532C8.75854 6.02346 8.82465 6.06562 8.8807 6.11936C8.93675 6.17311 8.98164 6.2374 9.01279 6.30854C9.04394 6.37967 9.06074 6.45626 9.06222 6.5339C9.0637 6.61154 9.04984 6.68872 9.02143 6.76099C8.98888 6.84089 8.93965 6.91291 8.87703 6.97225C8.81441 7.0316 8.73984 7.07688 8.65831 7.10509L5.39258 8.27901V7.47191L7.83552 6.59634C7.86682 6.58508 7.89389 6.56443 7.91303 6.53721C7.93216 6.50999 7.94243 6.47753 7.94243 6.44426C7.94243 6.41099 7.93216 6.37853 7.91303 6.35131C7.89389 6.32409 7.86682 6.30344 7.83552 6.29218C7.56568 6.1949 7.27027 6.19543 7.00079 6.29366L5.39262 6.87216L5.39258 6.06509Z" fill="white"/>
</svg>
